<?xml version="1.0" encoding="UTF-8" standalone="no"?>
<!-- Created with Inkscape (http://www.inkscape.org/) -->

<svg
   version="1.1"
   id="svg1"
   width="513.06799"
   height="411.11423"
   viewBox="0 0 513.06799 411.11423"
   sodipodi:docname="Boton sonido.svg"
   inkscape:version="1.3 (0e150ed6c4, 2023-07-21)"
   xmlns:inkscape="http://www.inkscape.org/namespaces/inkscape"
   xmlns:sodipodi="http://sodipodi.sourceforge.net/DTD/sodipodi-0.dtd"
   xmlns="http://www.w3.org/2000/svg"
   xmlns:svg="http://www.w3.org/2000/svg">
  <defs
     id="defs1" />
  <sodipodi:namedview
     id="namedview1"
     pagecolor="#ffffff"
     bordercolor="#000000"
     borderopacity="0.25"
     inkscape:showpageshadow="2"
     inkscape:pageopacity="0.0"
     inkscape:pagecheckerboard="0"
     inkscape:deskcolor="#d1d1d1"
     showgrid="false"
     inkscape:zoom="1.6035156"
     inkscape:cx="254.12911"
     inkscape:cy="191.14251"
     inkscape:window-width="1920"
     inkscape:window-height="1017"
     inkscape:window-x="1912"
     inkscape:window-y="-8"
     inkscape:window-maximized="1"
     inkscape:current-layer="g1" />
  <g
     inkscape:groupmode="layer"
     inkscape:label="Image"
     id="g1"
     transform="translate(-1.7859777,-64.738731)">
    <path
       style="fill:#030303;stroke:none"
       d="m 275.11815,64.996957 c -15.27692,2.237121 -30.71603,14.207607 -44,21.569917 -30.62067,16.970726 -61.38713,33.677056 -92,50.661436 -13.73317,7.61932 -30.42622,20.88012 -46.000002,23.66757 -19.523705,3.49441 -42.164852,0.4476 -62,0.4476 -8.871023,0 -20.128333,-1.72345 -25.5396086,7.11438 -6.7223442,10.9791 -2.4603908,33.34964 -2.4603908,45.88562 v 114 c 0,12.52191 -5.1512609,39.55402 6.2063275,47.99197 6.5304109,4.85166 17.1391119,3.00803 24.7936719,3.00803 18.542274,0 37.501999,-1.14975 56,0.11127 17.221812,1.17401 37.139222,17.43359 52.000002,25.66528 32.29333,17.88794 64.70921,35.55331 97,53.44681 12.59993,6.98208 28.78284,19.76172 44,16.86621 33.49179,-6.37274 24,-54.39664 24,-79.08957 v -251 c 0,-18.79532 4.00229,-42.98257 -1.82605,-60.999996 -3.98755,-12.32694 -17.11642,-21.258636 -30.17395,-19.346527 m 2,31.346527 V 444.34348 l -44,-23.11517 -73,-40.21497 -29.99999,-16.47833 -13.45645,-8.93598 -1.54356,-20.25555 v -51 -69 l 1.09438,-29.46313 11.90577,-8.63886 28.99985,-15.90155 76,-41.88129 44,-23.115166 m 157.01642,12.015496 c -8.7067,2.95038 -11.94977,13.05716 -7.99481,20.9845 3.75586,7.52826 11.25137,13.45255 16.4693,20 8.90344,11.172 16.3945,23.22784 22.75686,36 27.84305,55.89362 25.3165,122.1326 -3.5484,177 -9.43954,17.94299 -25.24902,30.95584 -35.21686,48 -6.09314,10.41876 1.83322,24.74353 14.51749,22.48581 6.53644,-1.16345 11.53265,-6.90402 15.87347,-11.48892 11.31504,-11.95136 20.79355,-25.75281 28.97049,-39.99689 35.23185,-61.37326 37.84537,-137.42322 10.00702,-202 -9.22699,-21.4039 -22.17523,-41.88638 -38.04217,-58.99881 -6.03159,-6.50501 -13.8873,-15.34219 -23.79239,-11.98569 m -41.01319,41.84647 c -12.99118,3.10455 -13.39242,17.28546 -6.45947,26.13803 9.00727,11.50119 18.094,21.78687 24.68762,35 17.49637,35.0614 18.28861,77.22168 2.37854,113 -7.57406,17.03247 -22.39202,28.88614 -30.32806,45 -4.76959,9.68448 2.39356,22.27094 13.7178,21.45752 15.73212,-1.13001 29.25187,-26.3988 36.26593,-38.45752 26.87534,-46.20453 28.01212,-103.67395 6.27195,-152 -6.67789,-14.84418 -16.30472,-28.99976 -27.32544,-40.94592 -4.92713,-5.34085 -11.31882,-11.07761 -19.20887,-9.19211 M 85.118148,190.34348 v 160 h -52 v -160 h 52 m 264.016422,3.01123 c -8.25925,2.83432 -11.8537,12.23203 -8.21982,19.98877 3.75497,8.0152 10.97327,14.17349 15.24466,22 9.76218,17.88733 11.63657,39.76706 4.84125,59 -4.57645,12.95276 -20.17536,24.87616 -21.50904,37.99997 -0.99652,9.80597 8.18338,17.38333 17.62546,15.38153 10.74295,-2.27756 18.54148,-15.66104 23.74817,-24.3815 17.44254,-29.21375 18.29688,-66.21744 4.65085,-97 -5.45252,-12.29974 -19.44617,-38.80045 -36.38153,-32.98877 z"
       id="path1" />
  </g>
</svg>
