<?xml version="1.0" encoding="UTF-8" standalone="no"?>
<!-- Created with Inkscape (http://www.inkscape.org/) -->

<svg
   version="1.1"
   id="svg1"
   width="778.94092"
   height="593.39966"
   viewBox="0 0 778.94092 593.39966"
   sodipodi:docname="Forma logo corona.svg"
   inkscape:version="1.3 (0e150ed6c4, 2023-07-21)"
   xmlns:inkscape="http://www.inkscape.org/namespaces/inkscape"
   xmlns:sodipodi="http://sodipodi.sourceforge.net/DTD/sodipodi-0.dtd"
   xmlns="http://www.w3.org/2000/svg"
   xmlns:svg="http://www.w3.org/2000/svg">
  <defs
     id="defs1" />
  <sodipodi:namedview
     id="namedview1"
     pagecolor="#ffffff"
     bordercolor="#000000"
     borderopacity="0.25"
     inkscape:showpageshadow="2"
     inkscape:pageopacity="0.0"
     inkscape:pagecheckerboard="0"
     inkscape:deskcolor="#d1d1d1"
     inkscape:zoom="0.64544025"
     inkscape:cx="433.03776"
     inkscape:cy="236.27284"
     inkscape:window-width="1920"
     inkscape:window-height="1017"
     inkscape:window-x="1912"
     inkscape:window-y="-8"
     inkscape:window-maximized="1"
     inkscape:current-layer="g1" />
  <g
     inkscape:groupmode="layer"
     inkscape:label="Image"
     id="g1"
     transform="translate(-25.630309,-17.073488)">
    <path
       style="fill:#060606;stroke:none"
       d="m 414.02081,87.530528 c -3.93924,13.628972 -6.72852,27.577762 -11.40589,41.000002 -7.47796,21.4588 -18.08075,42.73301 -30.08224,62 -10.94495,17.57081 -26.44855,31.71738 -37.51187,49 -14.10581,-4.85507 -27.04203,-13.10934 -40,-20.39575 -18.26343,-10.26974 -36.69268,-20.24926 -55,-30.44336 -11.39211,-6.34347 -22.72107,-12.6896 -33.98162,-19.2659 -5.66337,-3.30749 -12.68982,-6.56546 -17.37286,-11.20953 -5.55864,-5.51236 0.26494,-15.80964 -0.11003,-22.68546 -1.07591,-19.72943 -17.13403,-37.384522 -37.53333,-36.802862 -20.23119,0.57685 -37.54562,18.844432 -35.6204,39.347022 1.04585,11.13785 7.57885,21.2786 16.72975,27.55667 4.4488,3.05216 13.85452,4.69016 15.64178,10.31492 1.21349,3.81903 0.28067,8.63262 0.25525,12.58429 -0.0603,9.37014 -0.73723,18.65026 -0.96202,27.99996 -0.70494,29.32029 -1.04652,58.66907 -1.04652,88 -11.61882,-2.68643 -23.51731,-4.15304 -35.00001,-7.43774 -5.18963,-1.48453 -11.28726,-3.03436 -15.46101,-6.63678 -4.622354,-3.98962 -5.75596,-10.73315 -8.573327,-15.92447 -5.701661,-10.50595 -14.87835,-19.92752 -26.969208,-22.39349 -3.477818,-0.70932 -7.186169,-0.91294 -10.707035,-0.41364 -29.777489,4.22275 -27.853348,43.40302 -13.989975,61.6749 13.588283,17.90933 43.614521,23.54068 53.700557,-0.86878 8.034228,8.32483 14.141128,18.42112 20.556488,28 7.6333,11.3974 15.57251,22.58677 23.18288,34 29.42792,44.13291 57.15996,89.38846 82.50874,136 11.06954,20.35474 22.13154,40.73291 33.35955,61 4.87132,8.79297 9.61564,21.26087 17.28724,27.93793 7.2807,6.33685 21.97882,4.82935 31.10511,6.06439 23.55435,3.18769 48.23166,4.62586 72,4.935 7.01986,0.0912 13.97207,-1.02624 21,-0.88629 41.5187,0.82684 82.62277,-1.11389 124,-4.85425 11.71283,-1.05877 23.36706,-3.00665 35,-4.73456 5.57306,-0.82782 12.63488,-1.04736 17.49859,-4.13269 8.31147,-5.27252 14.19794,-18.125 19.26288,-26.32953 12.07263,-19.55603 24.0058,-39.19171 35.65564,-59 39.04566,-66.38955 79.47083,-132.15231 122.58289,-196 2.9563,4.60834 6.24267,9.00507 11.11511,11.74494 10.63177,5.97845 24.32355,2.18375 33.02283,-5.44437 12.5393,-10.9953 18.92761,-28.92163 15.48962,-45.30041 -3.36627,-16.03705 -16.9856,-27.28385 -33.61096,-22.24948 -10.95429,3.3171 -19.20984,12.3399 -24.40625,22.25027 -2.48895,4.74686 -3.34339,11.04959 -7.42676,14.7785 -3.50287,3.1988 -8.74676,4.426 -13.18365,5.71695 -9.81641,2.85617 -20.05103,4.17481 -29.99994,6.5036 0,-28.35791 -0.36505,-56.66326 -1.04651,-85 -0.21582,-8.97589 -0.67664,-18.02438 -1.06354,-27 -0.18091,-4.19726 -1.17328,-8.67572 -0.39606,-12.85015 1.3877,-7.45334 11.383,-9.46613 16.61072,-13.72721 11.03479,-8.99436 15.74146,-24.84818 11.2843,-38.42221 -8.50915,-25.914072 -42.461,-34.989082 -60.18939,-12.81909 -11.30713,14.13992 -8.50238,28.82598 -4.19952,44.81866 -12.92566,5.16532 -23.99543,14.12308 -35.99799,21.03425 -23.42841,13.49026 -47.24158,26.44317 -71.00201,39.34494 -9.0152,4.8952 -17.87262,10.05828 -26.92676,14.89242 -3.58234,1.91266 -7.85312,5.35211 -12.14197,4.96027 -4.33667,-0.39621 -7.68588,-4.28586 -10.44629,-7.26783 -6.4545,-6.97256 -12.37558,-14.46087 -18.19522,-21.96405 -19.23376,-24.79785 -33.013,-51.8902 -44.48685,-81 -3.22226,-8.17511 -5.75463,-16.48663 -7.91964,-25 -0.94117,-3.700872 -2.50653,-7.900572 -2.21317,-11.766852 0.53137,-7.00305 13.49854,-11.29455 18.18012,-15.65478 15.46966,-14.407777 15.11609,-38.856996 -2.87204,-51.185121 -22.86756,-15.672241 -66.19406,-3.75415 -63.58152,28.606751 0.30466,3.773743 1.23154,7.562012 2.82846,10.99988 2.08036,4.47864 5.28531,8.33648 8.87027,11.69378 7.01572,6.57013 14.92334,9.50379 23.90461,12.30634 m 2.00097,-52.246399 c 21.55011,-1.911866 24.73407,28.740169 2.99799,30.840759 -16.55057,1.59949 -26.62857,-19.130432 -10.84815,-28.302063 2.38691,-1.387268 5.09623,-2.294373 7.85016,-2.538696 M 149.99729,118.57033 c 19.92334,-1.55176 24.22173,30.32272 3.65489,32.47543 -21.06292,2.20465 -25.57679,-30.76804 -3.65489,-32.47543 m 534.05672,0.99731 c 19.33691,-5.58423 26.93011,24.90185 7.88782,30.86594 -20.20117,6.32705 -27.58832,-25.1767 -7.88782,-30.86594 m -264.0332,25.96289 c 14.43948,28.16407 27.61392,55.76203 47.18048,80.99549 37.14486,47.90277 93.61859,85.01947 153.82165,95.68881 21.80933,3.86511 45.00312,3.66895 66.99787,1.72827 10.04547,-0.88635 19.8966,-3.11004 30,-3.41257 -36.9823,59.04694 -75.97663,116.60294 -110.85315,177 -11.38202,19.7107 -22.77326,39.46204 -34.45026,59 -4.56201,7.63318 -8.94543,19.15857 -16.31714,24.4488 -4.43817,3.18499 -10.1712,3.29742 -15.37945,3.9743 -6.34815,0.82507 -12.59412,2.11475 -19,2.4812 -23.29282,1.33258 -46.71967,2.66553 -70,4.38526 -39.11927,2.88977 -77.87284,-0.20063 -117,-0.29175 -12.65506,-0.0294 -25.40207,-1.19208 -38,-2.35169 -5.36005,-0.49341 -11.88996,-0.01 -16.72919,-2.68347 -7.34741,-4.05914 -10.53757,-14.93445 -14.22342,-21.96265 -9.10895,-17.36901 -18.065,-34.84155 -27.56592,-52 -23.24504,-41.98007 -47.10609,-83.79928 -73.34176,-124 -9.43448,-14.45636 -19.09853,-28.77023 -28.87124,-43 -5.63275,-8.20169 -12.09704,-15.9147 -16.26847,-25 9.37721,2.90122 19.30766,3.64023 29,4.99567 82.31497,11.51148 163.08288,-25.87839 216.40423,-88.04217 14.70502,-17.14362 27.92258,-36.89051 38.31043,-56.9535 5.91586,-11.42584 10.1806,-23.70523 16.28534,-35 m 252,26 1.95349,60 0.0465,73 c -16.30335,-2.07275 -32.77417,-1.28338 -49.11011,-3.87481 -25.66907,-4.07199 -51.83386,-15.33344 -73.88989,-28.83286 -8.40833,-5.14633 -17.11914,-10.14496 -24,-17.29233 l 92.97406,-52.22277 31.05407,-19.22257 20.97187,-11.55466 m -357,83 v 2 c -30.43317,21.92328 -63.71325,39.79429 -100.99121,46.72324 -15.27108,2.83847 -30.67493,1.72128 -46.00879,3.27676 -3.57206,-19.15673 -0.9458,-40.64254 -0.11008,-60 1.05948,-24.54016 1.11008,-49.4422 1.11008,-74 l 18.00879,9.02268 28.36962,17.39456 99.62159,55.58276 M 53.995599,273.38152 c 17.800892,-3.88355 29.047428,28.67602 9.997471,33.59387 -18.74461,4.83902 -30.284254,-29.16797 -9.997471,-33.59387 m 722.018371,0.1791 c 7.6543,-0.002 11.79669,7.02985 11.78638,13.97052 -0.0135,9.05524 -6.927,19.74888 -16.78443,19.89924 -8.08673,0.12335 -13.03442,-7.38788 -12.54882,-14.90207 0.57525,-8.90177 7.94036,-18.96506 17.54687,-18.96769 z"
       id="path4" />
  </g>
</svg>
