<?xml version="1.0" encoding="UTF-8" standalone="no"?>
<!-- Created with Inkscape (http://www.inkscape.org/) -->

<svg
   version="1.1"
   id="svg1"
   width="444.60159"
   height="446.18445"
   viewBox="0 0 444.60159 446.18445"
   sodipodi:docname="Icono accesibilidad.svg"
   inkscape:version="1.3 (0e150ed6c4, 2023-07-21)"
   xmlns:inkscape="http://www.inkscape.org/namespaces/inkscape"
   xmlns:sodipodi="http://sodipodi.sourceforge.net/DTD/sodipodi-0.dtd"
   xmlns="http://www.w3.org/2000/svg"
   xmlns:svg="http://www.w3.org/2000/svg">
  <defs
     id="defs1" />
  <sodipodi:namedview
     id="namedview1"
     pagecolor="#ffffff"
     bordercolor="#000000"
     borderopacity="0.25"
     inkscape:showpageshadow="2"
     inkscape:pageopacity="0.0"
     inkscape:pagecheckerboard="0"
     inkscape:deskcolor="#d1d1d1"
     inkscape:zoom="1.6536254"
     inkscape:cx="170.83675"
     inkscape:cy="200.46861"
     inkscape:window-width="1920"
     inkscape:window-height="1017"
     inkscape:window-x="1912"
     inkscape:window-y="-8"
     inkscape:window-maximized="1"
     inkscape:current-layer="g1" />
  <g
     inkscape:groupmode="layer"
     inkscape:label="Image"
     id="g1"
     transform="translate(-22.534818,-19.941271)">
    <path
       style="fill:#000000;stroke:none"
       d="m 230.67332,20.803567 c -40.91358,4.35328 -79.44862,15.42818 -113.45455,39.47429 -23.995728,16.96774 -44.524838,38.11967 -60.395241,62.884293 -61.7791473,96.40194 -37.604955,227.5647 52.637661,297.25531 22.06339,17.03865 47.90279,29.57111 74.66667,37.1506 25.6089,7.25237 53.92004,10.29306 80.48485,7.57297 35.48325,-3.63325 69.65279,-14.5532 99.87879,-33.69333 22.59162,-14.30578 42.44922,-32.9145 58.54034,-54.22493 62.97674,-83.40395 58.16738,-205.49989 -12.22751,-283.151533 -26.69111,-29.44259 -60.13326,-50.54557 -97.70677,-63.02986 -25.71304,-8.54347 -55.33819,-13.11982 -82.42424,-10.23781 m 8.72727,83.344733 c 42.50438,-6.121063 52.34926,59.58982 9.69697,65.66786 -42.34634,6.03444 -52.09062,-59.56274 -9.69697,-65.66786 m -98.90702,68.16182 c 7.04372,-1.19981 15.20944,0.81194 22.30096,1.18445 15.52887,0.8157 31.03196,1.7732 46.54545,2.85088 34.89545,2.42413 71.8909,1.3476 106.66667,-2.3299 9.92084,-1.04912 25.26246,-4.07108 34.90315,-1.50666 5.82501,1.54945 9.75811,7.7967 7.87065,13.65087 -3.07597,9.54048 -15.4238,8.51598 -23.37986,8.8117 -15.75059,0.58546 -31.82806,1.62766 -47.51515,3.1796 -6.25619,0.61893 -13.54593,0.0156 -17.73438,5.63491 -5.42794,7.2822 -0.88151,24.19786 -0.6637,32.83073 0.85943,34.06336 6.68161,68.50438 17.42883,100.84849 3.14527,9.46579 20.7381,38.43019 0.96718,40.28868 -8.67158,0.81513 -13.89879,-8.49979 -17.19162,-15.07656 -8.69294,-17.36242 -12.19333,-37.3592 -15.96996,-56.24242 -1.11651,-5.58254 -1.3697,-19.9154 -7.74142,-22.13631 -8.2816,-2.88663 -9.12526,11.43945 -10.101,16.31812 -4.15422,20.77108 -7.56158,42.94236 -17.13358,62.06061 -4.13561,8.26006 -14.79159,22.24414 -24.3381,11.34736 -7.70706,-8.79717 6.57438,-31.50899 9.70171,-41.40796 10.04727,-31.80277 15.28626,-65.58494 15.87754,-98.9091 0.15548,-8.76243 5.01119,-24.89364 -2.20417,-31.58173 -5.60337,-5.1939 -16.82779,-3.98562 -23.98824,-4.38702 -17.16771,-0.96236 -37.68721,0.34005 -54.29723,-4.00518 -11.32943,-2.96381 -12.69905,-19.2611 -0.004,-21.42356 z"
       id="path1" />
  </g>
</svg>
